# MagicaVoxel @ Ephtracy

# group
o 

# material
mtllib Arena_Floor_default.mtl
usemtl palette

# normals
vn -1 0 0
vn 1 0 0
vn 0 0 1
vn 0 0 -1
vn 0 -1 0
vn 0 1 0

# texcoords
vt 0.232422 0.5
vt 0.748047 0.5
vt 0.982422 0.5

# verts
v -5 0 5
v -5 0 -5
v -5 1.1 5
v -5 1.1 -5
v 5 0 5
v 5 0 -5
v 5 1.1 5
v 5 1.1 -5
v -5 0 5
v -5 1.1 5
v 5 0 5
v 5 1.1 5
v -5 0 -5
v -5 1.1 -5
v 5 0 -5
v 5 1.1 -5
v -5 0 5
v 5 0 5
v -5 0 -5
v 5 0 -5
v -5 1.1 5
v 5 1.1 5
v -5 1.1 -5
v 5 1.1 -5

# faces
f 3/3/1 2/3/1 1/3/1
f 4/3/1 2/3/1 3/3/1
f 5/3/2 6/3/2 7/3/2
f 7/3/2 6/3/2 8/3/2
f 11/3/3 10/3/3 9/3/3
f 12/3/3 10/3/3 11/3/3
f 13/3/4 14/3/4 15/3/4
f 15/3/4 14/3/4 16/3/4
f 19/3/5 18/3/5 17/3/5
f 20/3/5 18/3/5 19/3/5
f 21/3/6 22/3/6 23/3/6
f 23/3/6 22/3/6 24/3/6
